<svg width="48" height="48" viewBox="0 0 48 48" fill="none" xmlns="http://www.w3.org/2000/svg">
<path d="M24 48C37.2548 48 48 37.2548 48 24C48 10.7452 37.2548 0 24 0C10.7452 0 0 10.7452 0 24C0 37.2548 10.7452 48 24 48Z" fill="url(#paint0_linear_2_7)"/>
<path d="M39.0009 24.4946C38.9996 23.1701 38.6232 21.8729 37.9153 20.7533C37.2075 19.6338 36.197 18.7375 35.0009 18.1684V17.9946C34.9998 16.7061 34.5839 15.4523 33.8148 14.4185C33.0457 13.3848 31.9642 12.6261 30.7304 12.2547C29.4966 11.8833 28.1761 11.9189 26.9641 12.3563C25.7521 12.7937 24.7132 13.6097 24.0009 14.6834C23.2887 13.6097 22.2497 12.7937 21.0378 12.3563C19.8258 11.9189 18.5053 11.8833 17.2715 12.2547C16.0377 12.6261 14.9562 13.3848 14.1871 14.4185C13.418 15.4523 13.0021 16.7061 13.0009 17.9946V18.1684C11.8039 18.736 10.7924 19.6317 10.0842 20.7513C9.37593 21.8709 9 23.1685 9 24.4934C9 25.8182 9.37593 27.1159 10.0842 28.2355C10.7924 29.3551 11.8039 30.2508 13.0009 30.8184V30.9946C13.0021 32.2831 13.418 33.537 14.1871 34.5707C14.9562 35.6045 16.0377 36.3632 17.2715 36.7346C18.5053 37.106 19.8258 37.0703 21.0378 36.6329C22.2497 36.1955 23.2887 35.3796 24.0009 34.3059C24.7132 35.3796 25.7521 36.1955 26.9641 36.6329C28.1761 37.0703 29.4966 37.106 30.7304 36.7346C31.9642 36.3632 33.0457 35.6045 33.8148 34.5707C34.5839 33.537 34.9998 32.2831 35.0009 30.9946V30.8184C36.1968 30.2497 37.2072 29.3539 37.9151 28.2347C38.6229 27.1156 38.9995 25.8189 39.0009 24.4946ZM19.0009 34.9946C18.0146 34.9945 17.0631 34.6299 16.3292 33.971C15.5953 33.3121 15.1307 32.4052 15.0247 31.4246C15.3481 31.4707 15.6743 31.4941 16.0009 31.4946H17.0009C17.2661 31.4946 17.5205 31.3893 17.7081 31.2017C17.8956 31.0142 18.0009 30.7599 18.0009 30.4946C18.0009 30.2294 17.8956 29.9751 17.7081 29.7875C17.5205 29.6 17.2661 29.4946 17.0009 29.4946H16.0009C14.8204 29.496 13.6774 29.0796 12.7744 28.3192C11.8714 27.5587 11.2666 26.5033 11.0671 25.3397C10.8675 24.1762 11.0861 22.9795 11.6841 21.9617C12.2822 20.9438 13.2211 20.1704 14.3347 19.7784C14.5295 19.7094 14.6982 19.5817 14.8175 19.4129C14.9368 19.2442 15.0009 19.0426 15.0009 18.8359V17.9946C15.0009 16.9337 15.4223 15.9163 16.1725 15.1662C16.9227 14.4161 17.9401 13.9946 19.0009 13.9946C20.0618 13.9946 21.0792 14.4161 21.8293 15.1662C22.5795 15.9163 23.0009 16.9337 23.0009 17.9946V26.5271C21.9028 25.5395 20.4779 24.9935 19.0009 24.9946C18.7357 24.9946 18.4814 25.1 18.2938 25.2875C18.1063 25.4751 18.0009 25.7294 18.0009 25.9946C18.0009 26.2599 18.1063 26.5142 18.2938 26.7017C18.4814 26.8893 18.7357 26.9946 19.0009 26.9946C20.0618 26.9946 21.0792 27.4161 21.8293 28.1662C22.5795 28.9163 23.0009 29.9337 23.0009 30.9946C23.0009 32.0555 22.5795 33.0729 21.8293 33.8231C21.0792 34.5732 20.0618 34.9946 19.0009 34.9946ZM32.0009 29.4946H31.0009C30.7357 29.4946 30.4814 29.6 30.2938 29.7875C30.1063 29.9751 30.0009 30.2294 30.0009 30.4946C30.0009 30.7599 30.1063 31.0142 30.2938 31.2017C30.4814 31.3893 30.7357 31.4946 31.0009 31.4946H32.0009C32.3276 31.4941 32.6538 31.4707 32.9772 31.4246C32.8941 32.1929 32.5903 32.9208 32.1023 33.5201C31.6144 34.1194 30.9633 34.5645 30.2278 34.8017C29.4923 35.0388 28.7037 35.0578 27.9577 34.8563C27.2116 34.6549 26.5398 34.2416 26.0236 33.6665C25.5074 33.0914 25.1688 32.379 25.0489 31.6156C24.9289 30.8521 25.0327 30.0703 25.3476 29.3645C25.6625 28.6588 26.1751 28.0595 26.8235 27.6389C27.4718 27.2183 28.2281 26.9945 29.0009 26.9946C29.2661 26.9946 29.5205 26.8893 29.7081 26.7017C29.8956 26.5142 30.0009 26.2599 30.0009 25.9946C30.0009 25.7294 29.8956 25.4751 29.7081 25.2875C29.5205 25.1 29.2661 24.9946 29.0009 24.9946C27.524 24.9935 26.0991 25.5395 25.0009 26.5271V17.9946C25.0009 16.9337 25.4223 15.9163 26.1725 15.1662C26.9227 14.4161 27.9401 13.9946 29.0009 13.9946C30.0618 13.9946 31.0792 14.4161 31.8293 15.1662C32.5795 15.9163 33.0009 16.9337 33.0009 17.9946V18.8359C33.001 19.0426 33.0651 19.2442 33.1843 19.4129C33.3037 19.5817 33.4723 19.7094 33.6672 19.7784C34.7807 20.1704 35.7197 20.9438 36.3177 21.9617C36.9158 22.9795 37.1344 24.1762 36.9349 25.3397C36.7353 26.5033 36.1305 27.5587 35.2275 28.3192C34.3245 29.0796 33.1815 29.496 32.0009 29.4946ZM34.0009 22.9946C34.0009 23.2599 33.8956 23.5142 33.7081 23.7017C33.5205 23.8893 33.2661 23.9946 33.0009 23.9946H32.5009C31.3075 23.9946 30.1629 23.5205 29.3189 22.6766C28.4751 21.8327 28.0009 20.6881 28.0009 19.4946V18.9946C28.0009 18.7294 28.1063 18.4751 28.2938 18.2875C28.4814 18.1 28.7357 17.9946 29.0009 17.9946C29.2661 17.9946 29.5205 18.1 29.7081 18.2875C29.8956 18.4751 30.0009 18.7294 30.0009 18.9946V19.4946C30.0009 20.1577 30.2643 20.7935 30.7332 21.2624C31.202 21.7313 31.8379 21.9946 32.5009 21.9946H33.0009C33.2661 21.9946 33.5205 22.1 33.7081 22.2875C33.8956 22.4751 34.0009 22.7294 34.0009 22.9946ZM15.5009 23.9946H15.0009C14.7357 23.9946 14.4814 23.8893 14.2938 23.7017C14.1063 23.5142 14.0009 23.2599 14.0009 22.9946C14.0009 22.7294 14.1063 22.4751 14.2938 22.2875C14.4814 22.1 14.7357 21.9946 15.0009 21.9946H15.5009C16.164 21.9946 16.7999 21.7313 17.2687 21.2624C17.7375 20.7935 18.0009 20.1577 18.0009 19.4946V18.9946C18.0009 18.7294 18.1063 18.4751 18.2938 18.2875C18.4814 18.1 18.7357 17.9946 19.0009 17.9946C19.2661 17.9946 19.5205 18.1 19.7081 18.2875C19.8956 18.4751 20.0009 18.7294 20.0009 18.9946V19.4946C20.0009 20.6881 19.5268 21.8327 18.6829 22.6766C17.839 23.5205 16.6944 23.9946 15.5009 23.9946Z" fill="#FDFDFE"/>
<defs>
<linearGradient id="paint0_linear_2_7" x1="0" y1="0" x2="57.8429" y2="26.5804" gradientUnits="userSpaceOnUse">
<stop stop-color="#3E63DD"/>
<stop offset="1" stop-color="#1F2D5C"/>
</linearGradient>
</defs>
</svg>
