<svg width="129" height="32" viewBox="0 0 129 32" fill="none" xmlns="http://www.w3.org/2000/svg">
<g filter="url(#filter0_d_120_570)">
<path d="M16 26C22.6274 26 28 20.6274 28 14C28 7.37258 22.6274 2 16 2C9.37258 2 4 7.37258 4 14C4 20.6274 9.37258 26 16 26Z" fill="url(#paint0_linear_120_570)"/>
<path d="M23.5005 14.2473C23.4998 13.585 23.3116 12.9365 22.9577 12.3767C22.6037 11.8169 22.0985 11.3688 21.5005 11.0842V10.9973C21.4999 10.3531 21.2919 9.72613 20.9074 9.20927C20.5228 8.6924 19.9821 8.31303 19.3652 8.12733C18.7483 7.94163 18.088 7.95947 17.482 8.17817C16.8761 8.39687 16.3566 8.80483 16.0005 9.3417C15.6444 8.80483 15.1249 8.39687 14.5189 8.17817C13.9129 7.95947 13.2526 7.94163 12.6357 8.12733C12.0188 8.31303 11.4781 8.6924 11.0936 9.20927C10.709 9.72613 10.501 10.3531 10.5005 10.9973V11.0842C9.90193 11.368 9.3962 11.8158 9.0421 12.3756C8.68797 12.9355 8.5 13.5843 8.5 14.2467C8.5 14.9091 8.68797 15.5579 9.0421 16.1177C9.3962 16.6776 9.90193 17.1254 10.5005 17.4092V17.4973C10.501 18.1416 10.709 18.7685 11.0936 19.2854C11.4781 19.8022 12.0188 20.1816 12.6357 20.3673C13.2526 20.553 13.9129 20.5352 14.5189 20.3165C15.1249 20.0978 15.6444 19.6898 16.0005 19.1529C16.3566 19.6898 16.8761 20.0978 17.482 20.3165C18.088 20.5352 18.7483 20.553 19.3652 20.3673C19.9821 20.1816 20.5228 19.8022 20.9074 19.2854C21.2919 18.7685 21.4999 18.1416 21.5005 17.4973V17.4092C22.0984 17.1248 22.6036 16.6769 22.9575 16.1174C23.3115 15.5578 23.4997 14.9094 23.5005 14.2473ZM13.5005 19.4973C13.0073 19.4972 12.5316 19.315 12.1646 18.9855C11.7977 18.656 11.5654 18.2026 11.5123 17.7123C11.674 17.7354 11.8371 17.7471 12.0005 17.7473H12.5005C12.6331 17.7473 12.7603 17.6946 12.854 17.6009C12.9478 17.5071 13.0005 17.3799 13.0005 17.2473C13.0005 17.1147 12.9478 16.9875 12.854 16.8938C12.7603 16.8 12.6331 16.7473 12.5005 16.7473H12.0005C11.4102 16.748 10.8387 16.5398 10.3872 16.1596C9.9357 15.7794 9.6333 15.2517 9.53353 14.6699C9.43373 14.0881 9.54307 13.4898 9.84207 12.9808C10.1411 12.4719 10.6106 12.0852 11.1673 11.8892C11.2648 11.8547 11.3491 11.7909 11.4088 11.7065C11.4684 11.6221 11.5005 11.5213 11.5005 11.4179V10.9973C11.5005 10.4669 11.7112 9.95817 12.0863 9.5831C12.4613 9.20803 12.97 8.9973 13.5005 8.9973C14.0309 8.9973 14.5396 9.20803 14.9147 9.5831C15.2898 9.95817 15.5005 10.4669 15.5005 10.9973V15.2636C14.9514 14.7697 14.2389 14.4968 13.5005 14.4973C13.3679 14.4973 13.2407 14.55 13.1469 14.6438C13.0531 14.7375 13.0005 14.8647 13.0005 14.9973C13.0005 15.1299 13.0531 15.2571 13.1469 15.3509C13.2407 15.4446 13.3679 15.4973 13.5005 15.4973C14.0309 15.4973 14.5396 15.708 14.9147 16.0831C15.2898 16.4582 15.5005 16.9669 15.5005 17.4973C15.5005 18.0277 15.2898 18.5365 14.9147 18.9115C14.5396 19.2866 14.0309 19.4973 13.5005 19.4973ZM20.0005 16.7473H19.5005C19.3679 16.7473 19.2407 16.8 19.1469 16.8938C19.0531 16.9875 19.0005 17.1147 19.0005 17.2473C19.0005 17.3799 19.0531 17.5071 19.1469 17.6009C19.2407 17.6946 19.3679 17.7473 19.5005 17.7473H20.0005C20.1638 17.7471 20.3269 17.7354 20.4886 17.7123C20.4471 18.0965 20.2951 18.4604 20.0512 18.76C19.8072 19.0597 19.4817 19.2823 19.1139 19.4008C18.7461 19.5194 18.3519 19.5289 17.9788 19.4282C17.6058 19.3274 17.2699 19.1208 17.0118 18.8332C16.7537 18.5457 16.5844 18.1895 16.5244 17.8078C16.4644 17.4261 16.5163 17.0351 16.6738 16.6823C16.8313 16.3294 17.0876 16.0297 17.4117 15.8194C17.7359 15.6091 18.1141 15.4973 18.5005 15.4973C18.6331 15.4973 18.7603 15.4446 18.854 15.3509C18.9478 15.2571 19.0005 15.1299 19.0005 14.9973C19.0005 14.8647 18.9478 14.7375 18.854 14.6438C18.7603 14.55 18.6331 14.4973 18.5005 14.4973C17.762 14.4968 17.0495 14.7697 16.5005 15.2636V10.9973C16.5005 10.4669 16.7112 9.95817 17.0863 9.5831C17.4613 9.20803 17.97 8.9973 18.5005 8.9973C19.0309 8.9973 19.5396 9.20803 19.9147 9.5831C20.2898 9.95817 20.5005 10.4669 20.5005 10.9973V11.4179C20.5005 11.5213 20.5325 11.6221 20.5922 11.7065C20.6518 11.7909 20.7362 11.8547 20.8336 11.8892C21.3904 12.0852 21.8598 12.4719 22.1589 12.9808C22.4579 13.4898 22.5672 14.0881 22.4674 14.6699C22.3677 15.2517 22.0652 15.7794 21.6137 16.1596C21.1622 16.5398 20.5907 16.748 20.0005 16.7473ZM21.0005 13.4973C21.0005 13.6299 20.9478 13.7571 20.854 13.8509C20.7603 13.9446 20.6331 13.9973 20.5005 13.9973H20.2505C19.6537 13.9973 19.0814 13.7603 18.6595 13.3383C18.2375 12.9163 18.0005 12.3441 18.0005 11.7473V11.4973C18.0005 11.3647 18.0531 11.2375 18.1469 11.1438C18.2407 11.05 18.3679 10.9973 18.5005 10.9973C18.6331 10.9973 18.7603 11.05 18.854 11.1438C18.9478 11.2375 19.0005 11.3647 19.0005 11.4973V11.7473C19.0005 12.0788 19.1322 12.3968 19.3666 12.6312C19.601 12.8656 19.9189 12.9973 20.2505 12.9973H20.5005C20.6331 12.9973 20.7603 13.05 20.854 13.1438C20.9478 13.2375 21.0005 13.3647 21.0005 13.4973ZM11.7505 13.9973H11.5005C11.3679 13.9973 11.2407 13.9446 11.1469 13.8509C11.0531 13.7571 11.0005 13.6299 11.0005 13.4973C11.0005 13.3647 11.0531 13.2375 11.1469 13.1438C11.2407 13.05 11.3679 12.9973 11.5005 12.9973H11.7505C12.082 12.9973 12.3999 12.8656 12.6344 12.6312C12.8688 12.3968 13.0005 12.0788 13.0005 11.7473V11.4973C13.0005 11.3647 13.0531 11.2375 13.1469 11.1438C13.2407 11.05 13.3679 10.9973 13.5005 10.9973C13.6331 10.9973 13.7603 11.05 13.854 11.1438C13.9478 11.2375 14.0005 11.3647 14.0005 11.4973V11.7473C14.0005 12.3441 13.7634 12.9163 13.3415 13.3383C12.9195 13.7603 12.3472 13.9973 11.7505 13.9973Z" fill="#FCFCFC"/>
</g>
<path d="M48.18 18.16H42.36L41.36 21H38.98L43.96 7.08H46.6L51.58 21H49.18L48.18 18.16ZM47.54 16.3L45.28 9.84L43 16.3H47.54ZM55.7253 6.2V21H53.4453V6.2H55.7253ZM60.4387 19.14H65.4387V21H57.7987V19.14L62.8187 11.84H57.7987V9.98H65.4387V11.84L60.4387 19.14ZM66.7728 14.02C66.7728 12.66 67.0861 11.44 67.7128 10.36C68.3528 9.28 69.2128 8.44 70.2928 7.84C71.3861 7.22667 72.5795 6.92 73.8728 6.92C75.3528 6.92 76.6661 7.28667 77.8128 8.02C78.9728 8.74 79.8128 9.76667 80.3328 11.1H77.5928C77.2328 10.3667 76.7328 9.82 76.0928 9.46C75.4528 9.1 74.7128 8.92 73.8728 8.92C72.9528 8.92 72.1328 9.12667 71.4128 9.54C70.6928 9.95333 70.1261 10.5467 69.7128 11.32C69.3128 12.0933 69.1128 12.9933 69.1128 14.02C69.1128 15.0467 69.3128 15.9467 69.7128 16.72C70.1261 17.4933 70.6928 18.0933 71.4128 18.52C72.1328 18.9333 72.9528 19.14 73.8728 19.14C74.7128 19.14 75.4528 18.96 76.0928 18.6C76.7328 18.24 77.2328 17.6933 77.5928 16.96H80.3328C79.8128 18.2933 78.9728 19.32 77.8128 20.04C76.6661 20.76 75.3528 21.12 73.8728 21.12C72.5661 21.12 71.3728 20.82 70.2928 20.22C69.2128 19.6067 68.3528 18.76 67.7128 17.68C67.0861 16.6 66.7728 15.38 66.7728 14.02ZM88.4016 9.8C89.2416 9.8 89.9882 9.98 90.6416 10.34C91.3082 10.7 91.8282 11.2333 92.2016 11.94C92.5882 12.6467 92.7816 13.5 92.7816 14.5V21H90.5216V14.84C90.5216 13.8533 90.2749 13.1 89.7816 12.58C89.2882 12.0467 88.6149 11.78 87.7616 11.78C86.9082 11.78 86.2282 12.0467 85.7216 12.58C85.2282 13.1 84.9816 13.8533 84.9816 14.84V21H82.7016V6.2H84.9816V11.26C85.3682 10.7933 85.8549 10.4333 86.4416 10.18C87.0416 9.92667 87.6949 9.8 88.4016 9.8ZM105.49 15.22C105.49 15.6333 105.463 16.0067 105.41 16.34H96.9898C97.0565 17.22 97.3832 17.9267 97.9698 18.46C98.5565 18.9933 99.2765 19.26 100.13 19.26C101.357 19.26 102.223 18.7467 102.73 17.72H105.19C104.857 18.7333 104.25 19.5667 103.37 20.22C102.503 20.86 101.423 21.18 100.13 21.18C99.0765 21.18 98.1298 20.9467 97.2898 20.48C96.4632 20 95.8098 19.3333 95.3298 18.48C94.8632 17.6133 94.6298 16.6133 94.6298 15.48C94.6298 14.3467 94.8565 13.3533 95.3098 12.5C95.7765 11.6333 96.4232 10.9667 97.2498 10.5C98.0898 10.0333 99.0498 9.8 100.13 9.8C101.17 9.8 102.097 10.0267 102.91 10.48C103.723 10.9333 104.357 11.5733 104.81 12.4C105.263 13.2133 105.49 14.1533 105.49 15.22ZM103.11 14.5C103.097 13.66 102.797 12.9867 102.21 12.48C101.623 11.9733 100.897 11.72 100.03 11.72C99.2432 11.72 98.5698 11.9733 98.0098 12.48C97.4498 12.9733 97.1165 13.6467 97.0098 14.5H103.11ZM106.674 15.48C106.674 14.3467 106.9 13.3533 107.354 12.5C107.82 11.6333 108.46 10.9667 109.274 10.5C110.087 10.0333 111.02 9.8 112.074 9.8C113.407 9.8 114.507 10.12 115.374 10.76C116.254 11.3867 116.847 12.2867 117.154 13.46H114.694C114.494 12.9133 114.174 12.4867 113.734 12.18C113.294 11.8733 112.74 11.72 112.074 11.72C111.14 11.72 110.394 12.0533 109.834 12.72C109.287 13.3733 109.014 14.2933 109.014 15.48C109.014 16.6667 109.287 17.5933 109.834 18.26C110.394 18.9267 111.14 19.26 112.074 19.26C113.394 19.26 114.267 18.68 114.694 17.52H117.154C116.834 18.64 116.234 19.5333 115.354 20.2C114.474 20.8533 113.38 21.18 112.074 21.18C111.02 21.18 110.087 20.9467 109.274 20.48C108.46 20 107.82 19.3333 107.354 18.48C106.9 17.6133 106.674 16.6133 106.674 15.48ZM123.486 15.5L128.566 21H125.486L121.406 16.26V21H119.126V6.2H121.406V14.8L125.406 9.98H128.566L123.486 15.5Z" fill="#202020"/>
<defs>
<filter id="filter0_d_120_570" x="0" y="0" width="32" height="32" filterUnits="userSpaceOnUse" color-interpolation-filters="sRGB">
<feFlood flood-opacity="0" result="BackgroundImageFix"/>
<feColorMatrix in="SourceAlpha" type="matrix" values="0 0 0 0 0 0 0 0 0 0 0 0 0 0 0 0 0 0 127 0" result="hardAlpha"/>
<feOffset dy="2"/>
<feGaussianBlur stdDeviation="2"/>
<feComposite in2="hardAlpha" operator="out"/>
<feColorMatrix type="matrix" values="0 0 0 0 0 0 0 0 0 0 0 0 0 0 0 0 0 0 0.04 0"/>
<feBlend mode="normal" in2="BackgroundImageFix" result="effect1_dropShadow_120_570"/>
<feBlend mode="normal" in="SourceGraphic" in2="effect1_dropShadow_120_570" result="shape"/>
</filter>
<linearGradient id="paint0_linear_120_570" x1="4" y1="2" x2="32.9214" y2="15.2902" gradientUnits="userSpaceOnUse">
<stop stop-color="#3E63DD"/>
<stop offset="1" stop-color="#1F2D5C"/>
</linearGradient>
</defs>
</svg>
