<svg width="155" height="40" viewBox="0 0 155 40" fill="none" xmlns="http://www.w3.org/2000/svg">
<g filter="url(#filter0_d_43_152)">
<path d="M20 34C28.8366 34 36 26.8366 36 18C36 9.16344 28.8366 2 20 2C11.1634 2 4 9.16344 4 18C4 26.8366 11.1634 34 20 34Z" fill="url(#paint0_linear_43_152)"/>
<path d="M30.0006 18.3297C29.9997 17.4467 29.7488 16.5819 29.2769 15.8355C28.805 15.0892 28.1313 14.4917 27.334 14.1123V13.9964C27.3332 13.1374 27.0559 12.3015 26.5432 11.6123C26.0304 10.9232 25.3095 10.4174 24.4869 10.1698C23.6644 9.92217 22.784 9.94595 21.976 10.2375C21.1681 10.5291 20.4755 11.0731 20.0006 11.7889C19.5258 11.0731 18.8332 10.5291 18.0252 10.2375C17.2172 9.94595 16.3368 9.92217 15.5143 10.1698C14.6918 10.4174 13.9708 10.9232 13.4581 11.6123C12.9453 12.3015 12.668 13.1374 12.6673 13.9964V14.1123C11.8692 14.4907 11.1949 15.0878 10.7228 15.8342C10.2506 16.5806 10 17.4457 10 18.3289C10 19.2121 10.2506 20.0772 10.7228 20.8236C11.1949 21.5701 11.8692 22.1672 12.6673 22.5456V22.6631C12.668 23.5221 12.9453 24.358 13.4581 25.0471C13.9708 25.7363 14.6918 26.2421 15.5143 26.4897C16.3368 26.7373 17.2172 26.7135 18.0252 26.4219C18.8332 26.1303 19.5258 25.5864 20.0006 24.8706C20.4755 25.5864 21.1681 26.1303 21.976 26.4219C22.784 26.7135 23.6644 26.7373 24.4869 26.4897C25.3095 26.2421 26.0304 25.7363 26.5432 25.0471C27.0559 24.358 27.3332 23.5221 27.334 22.6631V22.5456C28.1312 22.1664 28.8048 21.5692 29.2767 20.8231C29.7486 20.0771 29.9996 19.2126 30.0006 18.3297ZM16.6673 25.3297C16.0097 25.3296 15.3754 25.0866 14.8861 24.6473C14.3969 24.208 14.0872 23.6035 14.0164 22.9497C14.232 22.9805 14.4495 22.9961 14.6673 22.9964H15.334C15.5108 22.9964 15.6804 22.9262 15.8054 22.8011C15.9304 22.6761 16.0006 22.5066 16.0006 22.3297C16.0006 22.1529 15.9304 21.9834 15.8054 21.8583C15.6804 21.7333 15.5108 21.6631 15.334 21.6631H14.6673C13.8803 21.664 13.1183 21.3864 12.5163 20.8795C11.9143 20.3725 11.5111 19.6689 11.378 18.8931C11.245 18.1175 11.3908 17.3197 11.7894 16.6411C12.1881 15.9625 12.8141 15.4469 13.5564 15.1856C13.6864 15.1396 13.7988 15.0545 13.8784 14.9419C13.9579 14.8295 14.0006 14.6951 14.0006 14.5572V13.9964C14.0006 13.2891 14.2816 12.6109 14.7817 12.1108C15.2818 11.6107 15.96 11.3297 16.6673 11.3297C17.3745 11.3297 18.0528 11.6107 18.5529 12.1108C19.053 12.6109 19.334 13.2891 19.334 13.9964V19.6847C18.6019 19.0263 17.6519 18.6623 16.6673 18.6631C16.4905 18.6631 16.3209 18.7333 16.1959 18.8583C16.0708 18.9834 16.0006 19.1529 16.0006 19.3297C16.0006 19.5066 16.0708 19.6761 16.1959 19.8011C16.3209 19.9262 16.4905 19.9964 16.6673 19.9964C17.3745 19.9964 18.0528 20.2774 18.5529 20.7775C19.053 21.2775 19.334 21.9558 19.334 22.6631C19.334 23.3703 19.053 24.0486 18.5529 24.5487C18.0528 25.0488 17.3745 25.3297 16.6673 25.3297ZM25.334 21.6631H24.6673C24.4905 21.6631 24.3209 21.7333 24.1959 21.8583C24.0708 21.9834 24.0006 22.1529 24.0006 22.3297C24.0006 22.5066 24.0708 22.6761 24.1959 22.8011C24.3209 22.9262 24.4905 22.9964 24.6673 22.9964H25.334C25.5517 22.9961 25.7692 22.9805 25.9848 22.9497C25.9294 23.4619 25.7268 23.9472 25.4016 24.3467C25.0763 24.7463 24.6422 25.043 24.1519 25.2011C23.6615 25.3592 23.1358 25.3719 22.6384 25.2375C22.1411 25.1032 21.6932 24.8277 21.3491 24.4443C21.0049 24.0609 20.7792 23.586 20.6992 23.0771C20.6192 22.5681 20.6884 22.0468 20.8984 21.5763C21.1084 21.1059 21.4501 20.7063 21.8823 20.4259C22.3145 20.1455 22.8188 19.9963 23.334 19.9964C23.5108 19.9964 23.6804 19.9262 23.8054 19.8011C23.9304 19.6761 24.0006 19.5066 24.0006 19.3297C24.0006 19.1529 23.9304 18.9834 23.8054 18.8583C23.6804 18.7333 23.5108 18.6631 23.334 18.6631C22.3493 18.6623 21.3994 19.0263 20.6673 19.6847V13.9964C20.6673 13.2891 20.9482 12.6109 21.4484 12.1108C21.9484 11.6107 22.6267 11.3297 23.334 11.3297C24.0412 11.3297 24.7195 11.6107 25.2196 12.1108C25.7197 12.6109 26.0006 13.2891 26.0006 13.9964V14.5572C26.0007 14.6951 26.0434 14.8295 26.1229 14.9419C26.2024 15.0545 26.3149 15.1396 26.4448 15.1856C27.1872 15.4469 27.8131 15.9625 28.2118 16.6411C28.6105 17.3197 28.7563 18.1175 28.6232 18.8931C28.4902 19.6689 28.087 20.3725 27.485 20.8795C26.883 21.3864 26.121 21.664 25.334 21.6631ZM26.6673 17.3297C26.6673 17.5066 26.5971 17.6761 26.472 17.8011C26.347 17.9262 26.1774 17.9964 26.0006 17.9964H25.6673C24.8716 17.9964 24.1086 17.6803 23.546 17.1177C22.9834 16.5551 22.6673 15.7921 22.6673 14.9964V14.6631C22.6673 14.4863 22.7375 14.3167 22.8625 14.1917C22.9876 14.0667 23.1572 13.9964 23.334 13.9964C23.5108 13.9964 23.6804 14.0667 23.8054 14.1917C23.9304 14.3167 24.0006 14.4863 24.0006 14.6631V14.9964C24.0006 15.4384 24.1762 15.8623 24.4888 16.1749C24.8013 16.4875 25.2252 16.6631 25.6673 16.6631H26.0006C26.1774 16.6631 26.347 16.7333 26.472 16.8583C26.5971 16.9834 26.6673 17.1529 26.6673 17.3297ZM14.334 17.9964H14.0006C13.8238 17.9964 13.6543 17.9262 13.5292 17.8011C13.4042 17.6761 13.334 17.5066 13.334 17.3297C13.334 17.1529 13.4042 16.9834 13.5292 16.8583C13.6543 16.7333 13.8238 16.6631 14.0006 16.6631H14.334C14.776 16.6631 15.1999 16.4875 15.5125 16.1749C15.825 15.8623 16.0006 15.4384 16.0006 14.9964V14.6631C16.0006 14.4863 16.0708 14.3167 16.1959 14.1917C16.3209 14.0667 16.4905 13.9964 16.6673 13.9964C16.8441 13.9964 17.0137 14.0667 17.1387 14.1917C17.2637 14.3167 17.334 14.4863 17.334 14.6631V14.9964C17.334 15.7921 17.0179 16.5551 16.4553 17.1177C15.8927 17.6803 15.1296 17.9964 14.334 17.9964Z" fill="#FCFCFC"/>
</g>
<path d="M58.116 22.592H51.132L49.932 26H47.076L53.052 9.296H56.22L62.196 26H59.316L58.116 22.592ZM57.348 20.36L54.636 12.608L51.9 20.36H57.348ZM67.1704 8.24V26H64.4344V8.24H67.1704ZM72.8265 23.768H78.8265V26H69.6585V23.768L75.6825 15.008H69.6585V12.776H78.8265V15.008L72.8265 23.768ZM80.4274 17.624C80.4274 15.992 80.8034 14.528 81.5554 13.232C82.3234 11.936 83.3554 10.928 84.6514 10.208C85.9634 9.472 87.3954 9.104 88.9474 9.104C90.7234 9.104 92.2994 9.544 93.6754 10.424C95.0674 11.288 96.0754 12.52 96.6994 14.12H93.4114C92.9794 13.24 92.3794 12.584 91.6114 12.152C90.8434 11.72 89.9554 11.504 88.9474 11.504C87.8434 11.504 86.8594 11.752 85.9954 12.248C85.1314 12.744 84.4514 13.456 83.9554 14.384C83.4754 15.312 83.2354 16.392 83.2354 17.624C83.2354 18.856 83.4754 19.936 83.9554 20.864C84.4514 21.792 85.1314 22.512 85.9954 23.024C86.8594 23.52 87.8434 23.768 88.9474 23.768C89.9554 23.768 90.8434 23.552 91.6114 23.12C92.3794 22.688 92.9794 22.032 93.4114 21.152H96.6994C96.0754 22.752 95.0674 23.984 93.6754 24.848C92.2994 25.712 90.7234 26.144 88.9474 26.144C87.3794 26.144 85.9474 25.784 84.6514 25.064C83.3554 24.328 82.3234 23.312 81.5554 22.016C80.8034 20.72 80.4274 19.256 80.4274 17.624ZM106.382 12.56C107.39 12.56 108.286 12.776 109.07 13.208C109.87 13.64 110.494 14.28 110.942 15.128C111.406 15.976 111.638 17 111.638 18.2V26H108.926V18.608C108.926 17.424 108.63 16.52 108.038 15.896C107.446 15.256 106.638 14.936 105.614 14.936C104.59 14.936 103.774 15.256 103.166 15.896C102.574 16.52 102.278 17.424 102.278 18.608V26H99.5419V8.24H102.278V14.312C102.742 13.752 103.326 13.32 104.03 13.016C104.75 12.712 105.534 12.56 106.382 12.56ZM126.888 19.064C126.888 19.56 126.856 20.008 126.792 20.408H116.688C116.768 21.464 117.16 22.312 117.864 22.952C118.568 23.592 119.432 23.912 120.456 23.912C121.928 23.912 122.968 23.296 123.576 22.064H126.528C126.128 23.28 125.4 24.28 124.344 25.064C123.304 25.832 122.008 26.216 120.456 26.216C119.192 26.216 118.056 25.936 117.048 25.376C116.056 24.8 115.272 24 114.696 22.976C114.136 21.936 113.856 20.736 113.856 19.376C113.856 18.016 114.128 16.824 114.672 15.8C115.232 14.76 116.008 13.96 117 13.4C118.008 12.84 119.16 12.56 120.456 12.56C121.704 12.56 122.816 12.832 123.792 13.376C124.768 13.92 125.528 14.688 126.072 15.68C126.616 16.656 126.888 17.784 126.888 19.064ZM124.032 18.2C124.016 17.192 123.656 16.384 122.952 15.776C122.248 15.168 121.376 14.864 120.336 14.864C119.392 14.864 118.584 15.168 117.912 15.776C117.24 16.368 116.84 17.176 116.712 18.2H124.032ZM128.308 19.376C128.308 18.016 128.58 16.824 129.124 15.8C129.684 14.76 130.452 13.96 131.428 13.4C132.404 12.84 133.524 12.56 134.788 12.56C136.388 12.56 137.708 12.944 138.748 13.712C139.804 14.464 140.516 15.544 140.884 16.952H137.932C137.692 16.296 137.308 15.784 136.78 15.416C136.252 15.048 135.588 14.864 134.788 14.864C133.668 14.864 132.772 15.264 132.1 16.064C131.444 16.848 131.116 17.952 131.116 19.376C131.116 20.8 131.444 21.912 132.1 22.712C132.772 23.512 133.668 23.912 134.788 23.912C136.372 23.912 137.42 23.216 137.932 21.824H140.884C140.5 23.168 139.78 24.24 138.724 25.04C137.668 25.824 136.356 26.216 134.788 26.216C133.524 26.216 132.404 25.936 131.428 25.376C130.452 24.8 129.684 24 129.124 22.976C128.58 21.936 128.308 20.736 128.308 19.376ZM148.483 19.4L154.579 26H150.883L145.987 20.312V26H143.251V8.24H145.987V18.56L150.787 12.776H154.579L148.483 19.4Z" fill="#202020"/>
<defs>
<filter id="filter0_d_43_152" x="0" y="0" width="40" height="40" filterUnits="userSpaceOnUse" color-interpolation-filters="sRGB">
<feFlood flood-opacity="0" result="BackgroundImageFix"/>
<feColorMatrix in="SourceAlpha" type="matrix" values="0 0 0 0 0 0 0 0 0 0 0 0 0 0 0 0 0 0 127 0" result="hardAlpha"/>
<feOffset dy="2"/>
<feGaussianBlur stdDeviation="2"/>
<feComposite in2="hardAlpha" operator="out"/>
<feColorMatrix type="matrix" values="0 0 0 0 0 0 0 0 0 0 0 0 0 0 0 0 0 0 0.04 0"/>
<feBlend mode="normal" in2="BackgroundImageFix" result="effect1_dropShadow_43_152"/>
<feBlend mode="normal" in="SourceGraphic" in2="effect1_dropShadow_43_152" result="shape"/>
</filter>
<linearGradient id="paint0_linear_43_152" x1="4" y1="2" x2="42.5619" y2="19.7203" gradientUnits="userSpaceOnUse">
<stop stop-color="#3E63DD"/>
<stop offset="1" stop-color="#1F2D5C"/>
</linearGradient>
</defs>
</svg>
