<svg width="24" height="24" viewBox="0 0 24 24" fill="none" xmlns="http://www.w3.org/2000/svg">
<rect width="24" height="24" rx="4" fill="url(#paint0_linear_73_295)"/>
<path d="M19.5 11.75C19.4993 11.0877 19.3111 10.4391 18.9572 9.87935C18.6032 9.31957 18.098 8.87146 17.5 8.58688V8.5C17.4994 7.85576 17.2915 7.22882 16.9069 6.71195C16.5223 6.19507 15.9816 5.81572 15.3647 5.63002C14.7478 5.44432 14.0875 5.46214 13.4816 5.68084C12.8756 5.89954 12.3561 6.30751 12 6.84438C11.6439 6.30751 11.1244 5.89954 10.5184 5.68084C9.91242 5.46214 9.25214 5.44432 8.63524 5.63002C8.01835 5.81572 7.47762 6.19507 7.09306 6.71195C6.70851 7.22882 6.50056 7.85576 6.49998 8.5V8.58688C5.90144 8.87068 5.39573 9.31851 5.04161 9.87833C4.68749 10.4381 4.49951 11.087 4.49951 11.7494C4.49951 12.4118 4.68749 13.0606 5.04161 13.6204C5.39573 14.1802 5.90144 14.6281 6.49998 14.9119V15C6.50056 15.6442 6.70851 16.2712 7.09306 16.7881C7.47762 17.3049 8.01835 17.6843 8.63524 17.87C9.25214 18.0557 9.91242 18.0379 10.5184 17.8192C11.1244 17.6005 11.6439 17.1925 12 16.6556C12.3561 17.1925 12.8756 17.6005 13.4816 17.8192C14.0875 18.0379 14.7478 18.0557 15.3647 17.87C15.9816 17.6843 16.5223 17.3049 16.9069 16.7881C17.2915 16.2712 17.4994 15.6442 17.5 15V14.9119C18.0979 14.6275 18.6031 14.1796 18.957 13.62C19.311 13.0605 19.4992 12.4121 19.5 11.75ZM9.49998 17C9.00682 16.9999 8.53108 16.8177 8.16412 16.4882C7.79716 16.1587 7.56487 15.7053 7.51186 15.215C7.67354 15.2381 7.83665 15.2498 7.99998 15.25H8.49998C8.63259 15.25 8.75977 15.1973 8.85353 15.1036C8.9473 15.0098 8.99998 14.8826 8.99998 14.75C8.99998 14.6174 8.9473 14.4902 8.85353 14.3964C8.75977 14.3027 8.63259 14.25 8.49998 14.25H7.99998C7.40971 14.2507 6.83822 14.0425 6.38672 13.6623C5.93521 13.2821 5.6328 12.7543 5.53303 12.1726C5.43326 11.5908 5.54256 10.9925 5.84159 10.4835C6.14062 9.9746 6.61008 9.58789 7.16686 9.39188C7.26428 9.35738 7.34861 9.29355 7.40827 9.20916C7.46792 9.12477 7.49996 9.02397 7.49998 8.92063V8.5C7.49998 7.96957 7.71069 7.46086 8.08577 7.08579C8.46084 6.71071 8.96955 6.5 9.49998 6.5C10.0304 6.5 10.5391 6.71071 10.9142 7.08579C11.2893 7.46086 11.5 7.96957 11.5 8.5V12.7662C10.9509 12.2724 10.2384 11.9995 9.49998 12C9.36737 12 9.2402 12.0527 9.14643 12.1464C9.05266 12.2402 8.99998 12.3674 8.99998 12.5C8.99998 12.6326 9.05266 12.7598 9.14643 12.8536C9.2402 12.9473 9.36737 13 9.49998 13C10.0304 13 10.5391 13.2107 10.9142 13.5858C11.2893 13.9609 11.5 14.4696 11.5 15C11.5 15.5304 11.2893 16.0391 10.9142 16.4142C10.5391 16.7893 10.0304 17 9.49998 17ZM16 14.25H15.5C15.3674 14.25 15.2402 14.3027 15.1464 14.3964C15.0527 14.4902 15 14.6174 15 14.75C15 14.8826 15.0527 15.0098 15.1464 15.1036C15.2402 15.1973 15.3674 15.25 15.5 15.25H16C16.1633 15.2498 16.3264 15.2381 16.4881 15.215C16.4466 15.5992 16.2946 15.9631 16.0507 16.2627C15.8067 16.5624 15.4812 16.7849 15.1134 16.9035C14.7456 17.0221 14.3514 17.0316 13.9783 16.9309C13.6053 16.8301 13.2694 16.6235 13.0113 16.3359C12.7532 16.0484 12.5839 15.6922 12.5239 15.3105C12.464 14.9288 12.5158 14.5378 12.6733 14.185C12.8308 13.8321 13.0871 13.5324 13.4113 13.3221C13.7354 13.1118 14.1136 12.9999 14.5 13C14.6326 13 14.7598 12.9473 14.8535 12.8536C14.9473 12.7598 15 12.6326 15 12.5C15 12.3674 14.9473 12.2402 14.8535 12.1464C14.7598 12.0527 14.6326 12 14.5 12C13.7615 11.9995 13.049 12.2724 12.5 12.7662V8.5C12.5 7.96957 12.7107 7.46086 13.0858 7.08579C13.4608 6.71071 13.9695 6.5 14.5 6.5C15.0304 6.5 15.5391 6.71071 15.9142 7.08579C16.2893 7.46086 16.5 7.96957 16.5 8.5V8.92063C16.5 9.02397 16.532 9.12477 16.5917 9.20916C16.6513 9.29355 16.7357 9.35738 16.8331 9.39188C17.3899 9.58789 17.8593 9.9746 18.1584 10.4835C18.4574 10.9925 18.5667 11.5908 18.4669 12.1726C18.3672 12.7543 18.0648 13.2821 17.6132 13.6623C17.1617 14.0425 16.5903 14.2507 16 14.25ZM17 11C17 11.1326 16.9473 11.2598 16.8535 11.3536C16.7598 11.4473 16.6326 11.5 16.5 11.5H16.25C15.6532 11.5 15.0809 11.2629 14.659 10.841C14.237 10.419 14 9.84674 14 9.25V9C14 8.86739 14.0527 8.74022 14.1464 8.64645C14.2402 8.55268 14.3674 8.5 14.5 8.5C14.6326 8.5 14.7598 8.55268 14.8535 8.64645C14.9473 8.74022 15 8.86739 15 9V9.25C15 9.58152 15.1317 9.89946 15.3661 10.1339C15.6005 10.3683 15.9185 10.5 16.25 10.5H16.5C16.6326 10.5 16.7598 10.5527 16.8535 10.6464C16.9473 10.7402 17 10.8674 17 11ZM7.74998 11.5H7.49998C7.36737 11.5 7.2402 11.4473 7.14643 11.3536C7.05266 11.2598 6.99998 11.1326 6.99998 11C6.99998 10.8674 7.05266 10.7402 7.14643 10.6464C7.2402 10.5527 7.36737 10.5 7.49998 10.5H7.74998C8.0815 10.5 8.39944 10.3683 8.63386 10.1339C8.86828 9.89946 8.99998 9.58152 8.99998 9.25V9C8.99998 8.86739 9.05266 8.74022 9.14643 8.64645C9.2402 8.55268 9.36737 8.5 9.49998 8.5C9.63259 8.5 9.75977 8.55268 9.85353 8.64645C9.9473 8.74022 9.99998 8.86739 9.99998 9V9.25C9.99998 9.84674 9.76293 10.419 9.34097 10.841C8.91901 11.2629 8.34672 11.5 7.74998 11.5Z" fill="#FCFCFC"/>
<defs>
<linearGradient id="paint0_linear_73_295" x1="0" y1="0" x2="28.9214" y2="13.2902" gradientUnits="userSpaceOnUse">
<stop stop-color="#3E63DD"/>
<stop offset="1" stop-color="#1F2D5C"/>
</linearGradient>
</defs>
</svg>
